<svg width="63" height="64" viewBox="0 0 63 64" fill="none" xmlns="http://www.w3.org/2000/svg">
<path d="M44.6782 0C42.1893 0.0189378 39.7148 0.379642 37.3242 1.072L37.1582 1.126C35.654 0.865407 34.1324 0.718989 32.6062 0.688C29.4602 0.634 26.7602 1.394 24.5842 2.666C22.4382 1.928 17.9902 0.634 13.3022 0.896C10.0442 1.072 6.48016 2.062 3.83216 4.854C1.20816 7.636 -0.185843 11.948 0.104157 17.824C0.186157 19.438 0.646157 22.072 1.41616 25.498C2.17616 28.916 3.25016 32.916 4.59416 36.572C5.93816 40.218 7.40416 43.498 9.69816 45.726C10.8422 46.84 12.4262 47.79 14.2902 47.708C15.5942 47.654 16.7702 47.082 17.7922 46.238C18.2902 46.894 18.8242 47.174 19.3022 47.436C19.9182 47.77 20.5002 47.998 21.1162 48.146C22.2202 48.426 24.1062 48.792 26.3142 48.416C27.1182 48.2713 27.9018 48.0302 28.6482 47.698L28.7422 50.312C28.8562 53.072 28.9322 55.624 29.7522 57.864C29.8882 58.23 30.2542 60.104 31.6902 61.77C33.1382 63.436 35.9482 64.468 39.1682 63.78C41.4302 63.3 44.3142 62.426 46.2322 59.698C48.1282 57.01 48.9822 53.146 49.1502 46.874C49.1902 46.53 49.2442 46.25 49.2942 45.978L49.7422 46.02H49.7962C52.2122 46.124 54.8382 45.78 57.0362 44.758C58.9722 43.862 60.4422 42.956 61.5142 41.342C61.7762 40.944 62.0762 40.456 62.1522 39.622C62.2342 38.8 61.7542 37.496 60.9622 36.894C59.3802 35.686 58.3802 36.144 57.3062 36.374C56.2543 36.6006 55.1837 36.7292 54.1082 36.758C57.1902 31.572 59.3982 26.052 60.6602 21.174C61.4102 18.288 61.8282 15.632 61.8582 13.31C61.9002 10.988 61.7042 8.936 60.3162 7.156C55.9622 1.604 49.8462 0.06 45.1182 0.01H44.6802L44.6782 0ZM44.5522 1.71C49.0222 1.668 54.7382 2.918 58.8422 8.166C59.7702 9.344 60.0422 11.062 60.0102 13.188C59.9782 15.314 59.5842 17.844 58.8642 20.626C57.4802 26.024 54.8422 32.292 51.1462 37.93C51.2733 38.0258 51.4134 38.1033 51.5622 38.16C52.3322 38.482 54.0922 38.752 57.6122 38.034C58.4982 37.844 59.1462 37.722 59.8222 38.232C59.9862 38.3704 60.1158 38.5451 60.2005 38.7423C60.2852 38.9395 60.3228 39.1537 60.3102 39.368C60.2737 39.6928 60.1516 40.002 59.9562 40.264C59.2782 41.282 57.9382 42.254 56.2182 43.056C54.6982 43.762 52.5082 44.128 50.5842 44.15C49.6062 44.16 48.7102 44.086 47.9462 43.846L47.9062 43.838C47.6122 46.66 46.9382 52.244 46.4982 54.784C46.1462 56.834 45.5302 58.472 44.3542 59.69C43.1762 60.92 41.5202 61.648 39.2802 62.128C36.5102 62.722 34.4982 62.086 33.1982 60.992C31.8982 59.898 31.3022 58.44 30.9482 57.554C30.7002 56.94 30.5742 56.148 30.4502 55.084C30.314 53.8136 30.2233 52.5388 30.1782 51.262C30.0962 49.022 30.0642 46.782 30.0962 44.532C28.9406 45.5915 27.505 46.2968 25.9602 46.564C24.1182 46.876 22.4822 46.564 21.5042 46.324C21.0217 46.2009 20.5562 46.0189 20.1182 45.782C19.6602 45.542 19.2322 45.272 18.9422 44.728C18.775 44.4165 18.7233 44.0559 18.7962 43.71C18.8826 43.3586 19.0848 43.0465 19.3702 42.824C19.9002 42.394 20.6002 42.158 21.6502 41.938C23.5682 41.54 24.2442 41.272 24.6502 40.946C24.9942 40.676 25.3922 40.114 26.0762 39.29C26.0762 39.26 26.0762 39.218 26.0662 39.186C24.8268 39.1483 23.6136 38.8201 22.5242 38.228C22.1302 38.644 20.0762 40.812 17.5882 43.812C16.5462 45.06 15.3902 45.78 14.1622 45.834C12.9442 45.884 11.8362 45.272 10.9002 44.364C9.02616 42.54 7.52416 39.404 6.22216 35.862C4.92016 32.32 3.86816 28.374 3.10816 25.02C2.35816 21.654 1.91016 18.946 1.84616 17.644C1.56616 12.092 2.86816 8.354 5.09616 5.988C7.32416 3.622 10.3782 2.738 13.3582 2.562C18.7022 2.26 23.7842 4.124 24.8062 4.52C26.7842 3.176 29.3362 2.344 32.5242 2.394C34.0349 2.41622 35.5382 2.61217 37.0042 2.978L37.0582 2.946C37.7031 2.72262 38.3602 2.53566 39.0262 2.386C40.8363 1.96121 42.6871 1.73388 44.5462 1.708L44.5522 1.71ZM44.9582 3.49H44.5642C43.0442 3.508 41.5102 3.688 40.0222 4.01C43.3442 5.48 45.8542 7.738 47.6242 10.01C48.8542 11.572 49.8642 13.29 50.6342 15.124C50.9382 15.834 51.1362 16.426 51.2402 16.884C51.3022 17.114 51.3342 17.31 51.3542 17.508C51.3542 17.612 51.3642 17.718 51.3122 17.894C51.3122 17.904 51.3022 17.926 51.3022 17.936C51.3882 20.27 50.8042 21.85 50.7282 24.08C50.6782 25.696 51.0942 27.592 51.1982 29.664C51.2922 31.61 51.0542 33.746 49.7922 35.85C49.8962 35.976 49.9902 36.1 50.0942 36.236C53.4382 30.964 55.8542 25.142 57.1362 20.172C57.8242 17.494 58.1862 15.068 58.2182 13.154C58.2502 11.236 57.8962 9.84 57.4362 9.258C53.8522 4.684 49.0102 3.516 44.9562 3.488L44.9582 3.49ZM32.1762 4.176C29.0322 4.186 26.7702 5.136 25.0542 6.562C23.2802 8.042 22.0942 10.052 21.3242 12.124C20.3962 14.572 20.0742 16.946 19.9482 18.562L19.9902 18.54C21.1006 17.9182 22.2929 17.4557 23.5322 17.166C24.8662 16.852 26.3142 16.758 27.6142 17.27C28.9282 17.768 30.0002 18.966 30.3962 20.768C32.2742 29.456 29.8142 32.686 28.9082 35.122C28.5642 36.008 28.2622 36.904 28.0222 37.82C28.1362 37.798 28.2522 37.766 28.3662 37.756C29.0122 37.706 29.5102 37.914 29.8042 38.038C30.7222 38.422 31.3462 39.214 31.6902 40.12C31.7746 40.3673 31.8368 40.6216 31.8762 40.88C31.9106 40.988 31.9288 41.1006 31.9302 41.214C31.8252 44.536 31.8352 47.8607 31.9602 51.182C32.0242 52.62 32.1182 53.88 32.2322 54.88C32.3462 55.87 32.5022 56.63 32.6082 56.89C32.9502 57.744 33.4502 58.858 34.3582 59.618C35.2542 60.38 36.5442 60.88 38.9102 60.38C40.9602 59.932 42.2222 59.326 43.0642 58.452C43.9102 57.566 44.4082 56.348 44.7302 54.484C45.2202 51.682 46.1882 43.556 46.3042 42.036C46.2542 40.878 46.4182 39.994 46.7942 39.316C47.1682 38.628 47.7522 38.202 48.2642 37.972C48.5122 37.858 48.7522 37.786 48.9502 37.722C48.7406 37.4297 48.5252 37.1417 48.3042 36.858C47.5742 35.9723 46.9741 34.987 46.5222 33.932C46.3143 33.4896 46.0847 33.0577 45.8342 32.638C45.4822 32.004 45.0342 31.2 44.5642 30.294C43.6262 28.502 42.6062 26.316 42.0742 24.19C41.5442 22.064 41.4722 19.868 42.8262 18.326C44.0242 16.95 46.1382 16.38 49.2922 16.702C49.1982 16.42 49.1482 16.18 48.9902 15.816C48.2728 14.1311 47.3375 12.5476 46.2082 11.106C43.5302 7.68 39.1862 4.282 32.4902 4.168L32.1762 4.176ZM14.4702 4.312C14.1332 4.31164 13.7964 4.32232 13.4602 4.344C10.7622 4.502 8.22016 5.28 6.39616 7.208C4.57416 9.146 3.37816 12.302 3.63616 17.542C3.69016 18.542 4.11616 21.312 4.85416 24.614C5.59616 27.918 6.64616 31.804 7.90816 35.24C9.16616 38.666 10.6902 41.656 12.1482 43.072C12.8762 43.77 13.5102 44.062 14.0842 44.042C14.6582 44.01 15.3562 43.676 16.2102 42.656C17.7599 40.786 19.3688 38.9658 21.0342 37.198C19.853 36.1698 18.9496 34.8609 18.4072 33.3919C17.8648 31.9229 17.7007 30.3411 17.9302 28.792C18.2002 26.824 18.2422 24.978 18.2002 23.52C18.1702 22.104 18.0742 21.168 18.0742 20.574V20.51L18.0642 20.492C18.0642 17.418 18.6082 14.378 19.6482 11.492C20.3982 9.5 21.5042 7.492 23.1682 5.854C21.5342 5.312 18.6262 4.502 15.4822 4.344C15.1459 4.32238 14.8091 4.31171 14.4722 4.312H14.4702ZM47.5302 18.394C45.7202 18.426 44.7082 18.896 44.1682 19.498C43.4162 20.364 43.3442 21.884 43.8142 23.76C44.2802 25.634 45.2522 27.728 46.1582 29.47C46.6062 30.344 47.0442 31.126 47.3962 31.76C47.7622 32.406 48.0222 32.854 48.1782 33.25C48.3242 33.604 48.4922 33.916 48.6582 34.208C49.3562 32.728 49.4822 31.28 49.4082 29.76C49.3142 27.886 48.8782 25.968 48.9502 24.032C49.0242 21.76 49.4722 20.28 49.5042 18.53C48.851 18.4436 48.193 18.3982 47.5342 18.394H47.5302ZM25.5742 18.71C25.0222 18.71 24.4702 18.782 23.9282 18.908C22.854 19.1664 21.8199 19.5694 20.8542 20.106C20.5292 20.2819 20.2194 20.4846 19.9282 20.712L19.8642 20.762C19.8862 21.16 19.9582 22.096 19.9902 23.492C20.0222 25.012 19.9902 26.948 19.7002 29.044C19.0542 33.606 22.3662 37.378 26.2522 37.388C26.4822 36.45 26.8542 35.5 27.2302 34.502C28.3122 31.584 30.4382 29.46 28.6462 21.148C28.3562 19.794 27.7722 19.242 26.9682 18.93C26.5208 18.7725 26.0483 18.6986 25.5742 18.712V18.71ZM46.6882 19.25H46.8242C46.9902 19.26 47.1582 19.272 47.3022 19.312C47.4322 19.3375 47.5563 19.387 47.6682 19.458C47.7201 19.4892 47.7647 19.5313 47.7989 19.5813C47.8331 19.6314 47.856 19.6882 47.8662 19.748V19.77C47.8656 19.8979 47.8333 20.0237 47.7722 20.136C47.6935 20.2797 47.5959 20.4122 47.4822 20.53C47.2132 20.8307 46.8487 21.0292 46.4502 21.092C46.0646 21.1414 45.6744 21.0452 45.3562 20.822C45.2301 20.7305 45.1147 20.6252 45.0122 20.508C44.9222 20.4133 44.8635 20.2932 44.8442 20.164C44.8324 20.0408 44.8698 19.9179 44.9482 19.822C45.0408 19.7274 45.1465 19.6465 45.2622 19.582C45.5202 19.436 45.8642 19.332 46.2622 19.278C46.4062 19.26 46.5522 19.248 46.6882 19.238V19.25ZM25.8322 19.698C25.9682 19.698 26.1262 19.708 26.2722 19.728C26.6882 19.792 27.0422 19.896 27.3222 20.062C27.4594 20.1289 27.5803 20.2252 27.6762 20.344C27.78 20.4693 27.8322 20.6295 27.8222 20.792C27.7937 20.946 27.7246 21.0896 27.6222 21.208C27.5125 21.3416 27.383 21.4576 27.2382 21.552C26.8916 21.801 26.4633 21.9089 26.0402 21.854C25.6114 21.7851 25.2187 21.5729 24.9262 21.252C24.8033 21.1199 24.6978 20.9728 24.6122 20.814C24.5188 20.6724 24.4784 20.5024 24.4982 20.334C24.5402 20.054 24.7802 19.896 25.0102 19.814C25.2722 19.728 25.5522 19.7 25.8322 19.71V19.698ZM49.9902 39.28H49.9802C49.5962 39.426 49.2742 39.48 49.0022 39.606C48.7269 39.7098 48.5006 39.9133 48.3682 40.176C48.1902 40.48 48.0562 41.022 48.0962 41.946C48.2164 42.0325 48.3512 42.0969 48.4942 42.136C48.9422 42.272 49.7122 42.366 50.5662 42.354C52.2642 42.332 54.3582 41.938 55.4722 41.416C56.3826 40.9941 57.2279 40.4438 57.9822 39.782C54.2642 40.542 52.1722 40.344 50.8782 39.814C50.5603 39.6765 50.2623 39.4968 49.9922 39.28H49.9902ZM28.5742 39.53H28.5202C28.3762 39.54 28.1762 39.594 27.7702 40.032C26.8422 41.072 26.5202 41.728 25.7602 42.334C24.9902 42.948 24.0002 43.272 22.0102 43.678C21.5857 43.754 21.1724 43.883 20.7802 44.062C20.8522 44.126 20.8522 44.148 20.9662 44.198C21.2602 44.366 21.6322 44.502 21.9362 44.584C22.7902 44.792 24.1842 45.042 25.6542 44.792C27.1122 44.542 28.6322 43.842 29.9362 42.022C30.1662 41.71 30.1842 41.24 29.9982 40.74C29.8122 40.252 29.4042 39.814 29.1242 39.7C28.9489 39.6185 28.7631 39.5619 28.5722 39.532L28.5742 39.53Z" fill="#CECECE"/>
</svg>
