<svg width="25" height="24" viewBox="0 0 25 24" fill="none" xmlns="http://www.w3.org/2000/svg">
<path d="M5.48304 7.19704C6.69144 7.19704 7.67104 6.21744 7.67104 5.00904C7.67104 3.80065 6.69144 2.82104 5.48304 2.82104C4.27464 2.82104 3.29504 3.80065 3.29504 5.00904C3.29504 6.21744 4.27464 7.19704 5.48304 7.19704Z" fill="#CECECE"/>
<path d="M9.73697 8.85505V20.9941H13.506V14.9911C13.506 13.4071 13.804 11.8731 15.768 11.8731C17.705 11.8731 17.729 13.6841 17.729 15.0911V20.9951H21.5V14.3381C21.5 11.0681 20.796 8.55505 16.974 8.55505C15.139 8.55505 13.909 9.56205 13.406 10.5151H13.355V8.85505H9.73697ZM3.59497 8.85505H7.36997V20.9941H3.59497V8.85505Z" fill="#CECECE"/>
</svg>
