<svg width="258" height="172" viewBox="0 0 258 172" fill="none" xmlns="http://www.w3.org/2000/svg">
<g filter="url(#filter0_d)">
<path d="M16 16C16 11.5817 19.5817 8 24 8H258V172H16V16Z" fill="#4A97D2"/>
<path d="M60.3301 75C61.2641 75.5094 62.1981 76.0613 63.132 76.5708C66.698 78.566 70.2641 80.6038 73.8301 82.5991C73.9999 82.684 74.1273 82.684 74.2971 82.5991C76.632 81.2406 78.9244 79.8396 81.2594 78.4811C81.3443 78.4387 81.4292 78.3962 81.5141 78.3113C81.5141 78.4387 81.5141 78.5236 81.5141 78.6085C81.5141 79.7972 81.5141 80.9858 81.5141 82.1745C81.5141 82.3443 81.4716 82.4292 81.3018 82.5566C78.7122 84.0425 76.1226 85.5283 73.5754 87.0566C73.4056 87.1415 73.3207 87.1415 73.1509 87.0566C67.632 83.8302 62.0707 80.6038 56.5094 77.3773C56.4669 77.3349 56.382 77.2924 56.2971 77.25C56.382 77.2075 56.4669 77.1226 56.5518 77.0802C57.6981 76.4434 58.8018 75.8066 59.9481 75.2123C60.033 75.1698 60.1179 75.0849 60.2028 75.0425C60.2877 75 60.2877 75 60.3301 75Z" fill="white"/>
<path d="M56.2972 85.9952C57.1887 85.4858 57.9953 84.9763 58.8443 84.4669C59.1839 84.2971 59.4811 84.0848 59.8208 83.8726C59.9906 83.7877 60.0755 83.7877 60.2453 83.8726C64.4905 86.2499 68.7359 88.5849 72.9811 90.9622C73.2783 91.132 73.4906 91.132 73.7877 90.9622C76.5896 89.3914 79.4339 87.8631 82.2358 86.2924C82.3207 86.25 82.4056 86.2075 82.4905 86.1651C82.4905 86.25 82.4905 86.3349 82.4905 86.3773C82.4905 87.6085 82.4905 88.7971 82.4905 90.0283C82.4905 90.1981 82.4481 90.283 82.2783 90.3679C79.349 92.066 76.4622 93.7641 73.533 95.4622C73.4056 95.5471 73.2783 95.5471 73.1084 95.4622C67.5471 92.3207 62.0282 89.1792 56.4669 86.0802C56.4669 86.0802 56.4245 86.0377 56.2971 85.9953L56.2972 85.9952Z" fill="white"/>
<path d="M56 94.783C56.0849 94.7405 56.1698 94.6981 56.2547 94.6556C57.4434 94.1037 58.6321 93.5518 59.8208 93C59.9906 92.9151 60.1179 92.9151 60.2877 93C64.5754 95.2924 68.8632 97.5848 73.1509 99.8773C73.3207 99.9622 73.4481 99.9622 73.6179 99.8773C76.8019 98.0943 80.0283 96.3113 83.2122 94.5283C83.2971 94.4858 83.4245 94.4434 83.5094 94.3585C83.5094 94.4434 83.5094 94.5283 83.5094 94.5707C83.5094 95.6745 83.5094 96.7783 83.5094 97.8821C83.5094 98.0519 83.467 98.1368 83.3396 98.2217C80.0707 100.132 76.8019 102.042 73.533 103.953C73.4056 104.038 73.3207 104.038 73.1509 103.953C67.5047 100.939 61.816 97.8821 56.1698 94.8679C56.1274 94.8679 56.0849 94.8254 56 94.783Z" fill="white"/>
<path d="M102.486 77.5045C104.099 77.5045 105.712 77.547 107.325 77.547C107.538 77.547 107.75 77.547 108.047 77.547C108.047 84.0847 108.047 90.58 108.047 97.1177C112.292 97.1177 116.453 97.1177 120.656 97.1177C120.656 98.7734 120.656 100.387 120.656 102.042C120.443 102.042 120.231 102.042 120.061 102.042C114.415 102.042 108.811 102.042 103.165 102.042C102.953 102.042 102.741 102.085 102.528 102.085C102.486 93.8489 102.486 85.6554 102.486 77.5045H102.486Z" fill="white"/>
<path d="M143.962 77.1229C147.104 77.2503 149.863 78.3965 152.241 80.4343C153.896 81.8352 155.042 83.5758 155.722 85.5711C156.019 86.4625 156.146 87.439 156.316 88.4154C156.613 90.2833 156.359 92.1513 155.722 93.8918C155.127 95.5051 154.236 96.9485 153.047 98.222C151.519 99.8777 149.651 100.981 147.528 101.703C145.66 102.34 143.708 102.51 141.755 102.382C138.826 102.17 136.109 101.151 133.859 99.2833C131.693 97.4578 130.25 95.1229 129.741 92.321C129.189 89.4342 129.528 86.5899 130.929 83.9578C132.415 81.2409 134.58 79.2881 137.467 78.1418C138.953 77.5475 140.524 77.1654 142.137 77.1229C142.222 77.1229 143.835 77.1229 143.962 77.1229ZM142.986 97.3729C147.443 97.5003 150.585 93.9767 150.585 89.8163C150.585 85.2739 147.274 82.1324 142.986 82.0475C138.486 81.9626 135.429 85.4013 135.344 89.5616C135.259 94.0192 138.826 97.5003 142.986 97.3729Z" fill="white"/>
<path d="M184.717 87.6083C184.717 89.3064 184.717 90.8772 184.717 92.5328C180.726 92.5328 176.778 92.5328 172.745 92.5328C172.745 95.7168 172.745 98.8583 172.745 102C170.835 102 169.009 102 167.141 102C167.141 93.8913 167.141 85.7403 167.141 77.5894C173.509 77.5894 179.92 77.5894 186.33 77.5894C186.33 79.2026 186.33 80.7734 186.33 82.4291C181.83 82.4291 177.33 82.4291 172.745 82.4291C172.745 84.1696 172.745 85.8677 172.745 87.6083C176.736 87.6083 180.726 87.6083 184.717 87.6083V87.6083Z" fill="white"/>
<path d="M218 82.4719C216.939 82.4719 215.877 82.4294 214.858 82.4294C213.5 82.4294 212.184 82.4294 210.825 82.4294C210.656 82.4294 210.443 82.4294 210.231 82.4294C210.231 88.9671 210.231 95.4624 210.231 101.958C208.363 101.958 206.58 101.958 204.712 101.958C204.712 95.4624 204.712 88.9671 204.712 82.4294C202.123 82.4294 199.575 82.4294 196.986 82.4294C196.986 80.7737 196.986 79.1605 196.986 77.5049C197.198 77.5049 197.41 77.5049 197.623 77.5049C204.203 77.5049 210.783 77.5049 217.321 77.5049C217.533 77.5049 217.745 77.4624 217.957 77.4624C218 79.1605 218 80.8162 218 82.4719H218Z" fill="white"/>
</g>
<defs>
<filter id="filter0_d" x="0" y="0" width="274" height="196" filterUnits="userSpaceOnUse" color-interpolation-filters="sRGB">
<feFlood flood-opacity="0" result="BackgroundImageFix"/>
<feColorMatrix in="SourceAlpha" type="matrix" values="0 0 0 0 0 0 0 0 0 0 0 0 0 0 0 0 0 0 127 0"/>
<feOffset dy="8"/>
<feGaussianBlur stdDeviation="8"/>
<feColorMatrix type="matrix" values="0 0 0 0 0 0 0 0 0 0 0 0 0 0 0 0 0 0 0.16 0"/>
<feBlend mode="normal" in2="BackgroundImageFix" result="effect1_dropShadow"/>
<feBlend mode="normal" in="SourceGraphic" in2="effect1_dropShadow" result="shape"/>
</filter>
</defs>
</svg>
