<svg width="25" height="24" viewBox="0 0 25 24" fill="none" xmlns="http://www.w3.org/2000/svg">
<path d="M17.74 19.399V14.595H19.34V21H4.88098V14.595H6.47898V19.399H17.74ZM8.08198 17.8H16.137V16.196H8.08198V17.8ZM8.27698 14.16L16.136 15.801L16.476 14.249L8.61498 12.607L8.27698 14.16ZM9.29498 10.366L16.576 13.764L17.254 12.301L9.97298 8.90202L9.29498 10.356V10.366ZM11.332 6.77702L17.498 11.919L18.516 10.703L12.354 5.56302L11.338 6.77602L11.332 6.77702ZM15.314 2.99902L14.003 3.96802L18.806 10.422L20.119 9.45102L15.312 2.99902H15.314Z" fill="#CECECE"/>
</svg>
