<svg width="30" height="64" viewBox="0 0 30 64" fill="none" xmlns="http://www.w3.org/2000/svg">
<path d="M28.8121 25.386C25.4481 10.552 17.5001 5.68795 16.6461 3.82395C15.7081 2.50195 14.6981 0.00195312 14.6981 0.00195312C14.6881 0.0539531 14.6881 0.0859531 14.6781 0.137953V0.169953C14.6781 0.211953 14.6681 0.231953 14.6681 0.273953V0.315953H14.6581V0.449953H14.6481C14.6481 0.469953 14.6481 0.501953 14.6381 0.511953V0.573953C14.6381 0.593953 14.6381 0.615953 14.6281 0.625953V0.677953C14.6281 0.709953 14.6281 0.739953 14.6181 0.761953V0.771953C14.6163 0.817873 14.6096 0.863469 14.5981 0.907953V0.927953C14.5881 0.937953 14.5881 0.947953 14.5881 0.959953V1.00195H14.5781V1.06395H14.5681V1.10595H14.5481V1.16795H14.5381V1.21995H14.5281V1.26195H14.5181V1.30395H14.5081V1.34595H14.4981V1.38795H14.4881V1.41995H14.4781V1.46195H14.4681V1.50395H14.4581C14.4481 1.50395 14.4481 1.51395 14.4481 1.51395V1.53395L14.4381 1.55395C14.4381 1.57395 14.4281 1.59595 14.4181 1.61595C14.4081 1.62595 14.4081 1.62595 14.4081 1.63595V1.65595H14.3981V1.67595H14.3781V1.72795H14.3581V1.75995H14.3481V1.76995H14.3381V1.78995H14.3281V1.82195H14.3181V1.84195H14.2981V1.87395H14.2881V1.89395H14.2781V1.91395H14.2681V1.94595H14.2581V1.96595H14.2481V1.97595H14.2381V1.99595H14.2181V2.02795H14.2081V2.03795H14.1981V2.05795H14.1881V2.08995H14.1781V2.09995H14.1681V2.11995H14.1581V2.12995H14.1481V2.16195H14.1281V2.17195H14.1181V2.19195H14.1081V2.20195H14.0981V2.22195H14.0881V2.24195C14.0781 2.24195 14.0781 2.25195 14.0781 2.25195V2.26195H14.0681L14.0361 2.31395C14.0361 2.31395 14.0161 2.33395 14.0161 2.34595C14.0061 2.34595 14.0061 2.35595 14.0061 2.35595V2.36595H13.9961V2.37595H13.9861V2.39595H13.9661V2.40595H13.9561V2.41595H13.9461V2.44595H13.9361V2.45595H13.9261V2.46595H13.9161V2.48595H13.9061V2.46595H13.8861V2.47595H13.8761V2.49595H13.8661V2.51595H13.8561V2.52595H13.8461V2.53595H13.8361V2.54595H13.8261V2.56595H13.8061V2.57595H13.7961V2.59595H13.7861V2.60595H13.7761V2.61595H13.7661V2.64795H13.7561V2.65795H13.7461V2.66795H13.7361V2.67795H13.7261V2.68795H13.7061V2.70795H13.6961V2.71795H13.6861V2.72795H13.6761V2.74795H13.6661V2.75795H13.6461V2.76795H13.6361V2.77795H13.6261V2.79795H13.6161V2.81795H13.6061V2.82795H13.5961V2.83795H13.5761V2.84795H13.5661V2.85795H13.5561V2.87795H13.5461V2.88795H13.5361V2.90795H13.5261V2.91795H13.5161V2.92795H13.5061V2.93795H13.4961V2.94795H13.4761V2.95795C13.4661 2.95795 13.4661 2.96795 13.4661 2.96795L13.4561 2.97795L13.4461 2.98795V3.00795H13.4361V3.01795H13.4261V3.02795H13.4161V3.03795H13.4061L13.3861 3.05795V3.06795C13.3661 3.07795 13.3661 3.08795 13.3441 3.10995C13.3441 3.10995 13.3241 3.12995 13.3121 3.12995C13.2801 3.14995 13.2401 3.19195 13.2081 3.22395C13.1881 3.23395 13.1661 3.25595 13.1461 3.26595C13.1041 3.30795 13.0621 3.33795 13.0201 3.36995C12.9581 3.43195 12.8941 3.47395 12.8221 3.53595H12.8121L12.3221 3.96395H12.3121C11.8641 4.35995 11.3321 4.86995 10.7281 5.47395L10.6761 5.52595C7.05009 9.27595 1.33209 17.098 0.738091 29.734C0.676091 30.776 0.686089 31.796 0.748089 32.786V32.806C1.04009 37.786 2.60209 42.036 4.56009 45.494C5.33009 46.87 6.17409 48.12 7.02809 49.244C9.96609 53.12 12.9661 55.422 13.7261 55.984C14.9041 58.702 14.7981 63.39 14.7981 63.39L16.5161 63.962C16.5161 63.962 16.1621 59.43 16.6521 57.232C16.8081 56.554 17.1621 55.972 17.5801 55.472C17.8721 55.274 18.7061 54.67 19.7061 53.754C19.7581 53.702 19.7901 53.66 19.8321 53.608C23.8841 49.826 31.4581 40.514 28.8641 25.348L28.8121 25.386Z" fill="#CECECE"/>
</svg>
